<svg id="Layer_1" data-name="Layer 1" xmlns="http://www.w3.org/2000/svg" viewBox="0 0 181.47 182.05"><defs><style>.cls-1{fill:#231f20;}</style></defs><title>q-logo</title><path class="cls-1" d="M180.84,269.42A5,5,0,0,1,177.3,268L91.57,182.22a5,5,0,0,1,0-7.07L177.3,89.41a5,5,0,0,1,7.08,0l85.73,85.74a5,5,0,0,1,0,7.07l-29.37,29.37a5,5,0,0,1-7.07,0l-53.41-53.41-20.51,20.5,53.42,53.41a5,5,0,0,1,0,7.08L184.38,268A5,5,0,0,1,180.84,269.42Zm-78.67-90.74,78.67,78.67,21.72-21.72-53.41-53.41a5,5,0,0,1,0-7.07l27.57-27.58a5,5,0,0,1,7.08,0L237.21,201l22.3-22.3L180.84,100Z" transform="translate(-90.1 -87.95)"/><path class="cls-1" d="M239,270a5,5,0,0,1-3.54-1.46l-86.31-86.32a5,5,0,0,1,0-7.07l27.57-27.58a5,5,0,0,1,7.08,0l86.31,86.32a5,5,0,0,1,0,7.07l-27.57,27.58A5,5,0,0,1,239,270Zm-79.25-91.32L239,257.93l20.51-20.51-79.25-79.24Z" transform="translate(-90.1 -87.95)"/></svg>